# xmcd
#
# Track frame offsets:
#	182
#	19792
#	35277
#	51682
#
# Disc length: 964 seconds
#
# Revision: 0
# Processed by: cddbd v1.5.1PL0 Copyright (c) Steve Scherf et al.
# Submitted via: dBpowerAMP V4.0
#
DISCID=2f03c204
DTITLE=Trisha Yearwood - Thinkin' About You- bonus disc
DYEAR=1995
DGENRE=Country
TTITLE0=1. Walkaway Joe
TTITLE1=2. Nearest distant shore
TTITLE2=3. You Don't have to move that Mountain
TTITLE3=4.Women walk the line
EXTD=
EXTT0=
EXTT1=
EXTT2=
EXTT3=
PLAYORDER=
